<svg width="195" height="40" viewBox="0 0 195 40" fill="none" xmlns="http://www.w3.org/2000/svg">
<g clip-path="url(#clip0_445_2887)">
<path d="M66.7035 4.54126H41.239V9.2617H51.4837V35.3195H56.4588V9.2617H66.7035V4.54126Z" fill="white"/>
<path d="M67.616 15.1984L67.1579 12.5323H62.7405V35.3193H67.7198V20.239C68.5237 19.1904 69.5821 18.3653 70.7957 17.8432C72.1956 17.22 73.7122 16.9028 75.2444 16.9142H76.1364V12.1069H75.2444C72.2027 12.1069 69.6447 13.1455 67.616 15.1984Z" fill="white"/>
<path d="M83.8738 3.77588H78.6013V9.04832H83.8738V3.77588Z" fill="white"/>
<path d="M83.7261 12.5325H78.751V35.3195H83.7261V12.5325Z" fill="white"/>
<path d="M141.423 12.1069C138.689 12.1069 136.19 13.1683 133.984 15.2624L133.514 12.5323H129.094V35.3193H134.073V20.5093C136.095 18.0381 138.253 16.7875 140.487 16.7875C143.299 16.7875 144.613 18.26 144.613 21.4212V35.3222H149.592V20.993C149.592 18.4876 148.861 16.365 147.418 14.6806C145.947 12.9733 143.933 12.1069 141.423 12.1069Z" fill="white"/>
<path d="M159.843 7.09497L150.829 15.9156V16.957H154.868V29.5818C154.868 33.6137 157.206 35.7463 161.627 35.7463C163.048 35.752 164.45 35.4105 165.709 34.7504L166.006 34.5953V30.5563H165.039L164.931 30.6047C163.039 31.4455 161.407 31.3303 160.488 30.9433C160.061 30.7569 159.843 30.185 159.843 29.2361V16.9555H166.006V12.5324H159.843V7.09497Z" fill="white"/>
<path d="M174.194 3.77588H168.922V9.04832H174.194V3.77588Z" fill="white"/>
<path d="M174.044 12.5325H169.069V35.3195H174.044V12.5325Z" fill="white"/>
<path d="M192.915 24.6124C192.012 23.5553 190.804 22.8027 189.457 22.4556L185.692 21.4683C184.621 21.2008 183.578 20.828 182.578 20.3586C181.652 19.909 181.544 19.3627 181.544 18.9942C181.544 18.3896 181.882 17.8874 182.578 17.4591C183.349 16.984 184.602 16.7478 186.304 16.7478C188.035 16.7478 189.836 17.1348 191.66 17.8959L191.763 17.9386H192.725V13.4671L192.363 13.3334C190.095 12.504 187.698 12.0885 185.284 12.107C182.693 12.107 180.605 12.7828 179.075 14.1144C177.525 15.466 176.739 17.2443 176.739 19.3783C176.739 20.9632 177.233 22.292 178.207 23.3277C179.145 24.3307 180.347 25.0463 181.676 25.3934L185.422 26.3978C186.476 26.6681 187.503 27.0309 188.493 27.4805C189.489 27.9514 189.489 28.428 189.489 28.5845C189.489 29.6501 189.063 31.0671 185.324 31.0671C182.763 31.087 180.243 30.4084 178.04 29.1038L177.909 29.0269H176.991V33.6051L177.276 33.763C179.671 35.0776 182.357 35.7448 185.258 35.7448C188.196 35.7448 190.461 35.1003 191.988 33.8313C193.544 32.5367 194.334 30.9248 194.334 29.0397C194.338 27.1917 193.858 25.7007 192.915 24.6124Z" fill="white"/>
<path d="M116.404 12.1069C115.034 12.1098 113.677 12.3659 112.399 12.861C111.102 13.3589 109.921 14.12 108.931 15.096C107.879 16.1587 107.057 17.4263 106.512 18.8191C105.906 20.3044 105.599 22.0586 105.599 24.0347C105.583 25.6224 105.823 27.2015 106.31 28.7124C107.22 31.5663 109.403 33.8355 112.22 34.8555C113.729 35.4417 115.529 35.739 117.57 35.739C118.361 35.739 119.151 35.6964 119.938 35.6081C120.712 35.5214 121.442 35.4132 122.105 35.2852C122.706 35.1742 123.302 35.032 123.89 34.8584C124.286 34.7432 124.673 34.5995 125.048 34.4316L124.361 30.32C123.551 30.6188 122.719 30.8536 121.871 31.0186C120.678 31.2604 119.461 31.3785 118.243 31.3686C115.987 31.3686 114.24 30.8578 113.048 29.8491C111.856 28.8405 111.168 27.395 111.019 25.5555L111.01 25.4545H126.502C126.528 25.1927 126.548 24.894 126.562 24.5667C126.576 24.1912 126.583 23.8739 126.583 23.5951C126.583 19.7908 125.678 16.8914 123.894 14.9793C122.11 13.0672 119.591 12.1069 116.404 12.1069ZM121.341 21.7811H111.05L111.065 21.6759C111.154 21.0015 111.322 20.3385 111.562 19.7026C111.797 19.0709 112.144 18.4876 112.588 17.9812C113.561 16.8772 114.976 16.2612 116.448 16.3024C117.179 16.2868 117.903 16.4319 118.572 16.7292C119.154 16.9995 119.669 17.3936 120.084 17.8816C120.507 18.3895 120.826 18.9756 121.022 19.6059C121.235 20.2816 121.343 20.9873 121.341 21.6958V21.7811Z" fill="white"/>
<path d="M99.364 11.9504C92.0657 11.9504 86.3564 17.1489 86.3564 23.7871V23.8739C86.3564 30.4396 92.0472 35.5811 99.3227 35.5811C101.989 35.5811 104.247 35.0505 106.223 33.9564L106.167 33.9066C106.082 33.8284 105.995 33.7501 105.915 33.6648C105.018 32.6959 104.292 31.5806 103.771 30.367C102.495 31.057 101.064 31.4127 99.613 31.4013C95.1529 31.4013 91.7882 28.1291 91.7882 23.7871V23.7003C91.7882 19.4793 95.0988 16.1729 99.3284 16.1729C100.899 16.153 102.446 16.5628 103.801 17.3566C104.407 15.9467 105.265 14.6592 106.332 13.5566C104.359 12.4726 102.077 11.9504 99.364 11.9504Z" fill="white"/>
<path d="M4.95661 32.3872L0 27.4306L7.45198 19.9786L0.0554844 12.5821L5.01209 7.62549L17.3652 19.9786L4.95661 32.3872Z" fill="white"/>
<path d="M12.5685 40L7.61328 35.0434L20.0219 22.6348L32.375 34.9879L27.4184 39.9431L20.0219 32.548L12.5685 40Z" fill="white"/>
<path d="M19.9791 17.3652L7.62598 5.01209L12.5826 0.0569071L19.9791 7.45341L27.4311 0L32.3877 4.95661L19.9791 17.3652Z" fill="white"/>
</g>
<defs>
<clipPath id="clip0_445_2887">
<rect width="194.333" height="40" fill="white"/>
</clipPath>
</defs>
</svg>
